g Exported Mesh Combined Mesh 
v 1.558829 1.478544 0.286018
v 1.522689 1.15841 1.178448
v 1.218338 1.478544 1.035087
v 1.864448 1.15841 0.4265892
v 1.079208 1.579738 0.06635402
v 0.7399849 1.579738 0.8126328
v 0.557827 1.264944 -0.172292
v 0.2198722 1.264945 0.5711967
v 0.295929 0.8625746 -0.2929892
v -0.04075753 0.8625749 0.4477094
v 0.1553885 0.2412647 -0.358523
v -0.1800298 0.2412649 0.3793855
v -0.4073437 1.559018 1.579949
v -1.29415 1.238884 1.473586
v -1.127248 1.559018 1.18148
v -0.5715645 1.238884 1.873539
v -0.1505628 1.660211 1.119132
v -0.8677853 1.660211 0.7221475
v 0.1284325 1.345418 0.6181809
v -0.5861086 1.345418 0.2226809
v 0.2693954 0.943048 0.3666102
v -0.4424643 0.9430479 -0.02740567
v 0.3458018 0.3217379 0.2316721
v -0.3633764 0.3217379 -0.1608596
v -1.609493 1.478545 -0.252133
v -1.580842 1.15841 -1.144835
v -1.275299 1.478544 -1.004033
v -1.916281 1.158411 -0.3901351
v -1.128046 1.579738 -0.03650128
v -0.7950964 1.579738 -0.7856002
v -0.6046808 1.264945 0.1977618
v -0.2729762 1.264944 -0.5485365
v -0.3417794 0.8625749 0.3162576
v -0.01131957 0.8625746 -0.4272401
v -0.2006943 0.2412649 0.3806102
v 0.1285208 0.2412647 -0.3600869
v 0.3457527 1.559017 -1.562515
v 1.23342 1.238883 -1.463598
v 1.068975 1.559017 -1.170102
v 0.507504 1.238883 -1.857473
v 0.09284772 1.660211 -1.09956
v 0.8133759 1.660211 -0.7086085
v -0.1819341 1.345417 -0.596286
v 0.5359004 1.345417 -0.2067958
v -0.3207811 0.9430479 -0.3435411
v 0.3943596 0.9430479 0.04448749
v -0.3960527 0.3217379 -0.2079662
v 0.3163941 0.3217379 0.1786007
v 1.098673 1.226856 -1.38046
v 1.936239 0.9795331 -0.8563867
v 1.631621 1.226856 -0.6425982
v 1.401307 0.979533 -1.596997
v 0.624642 1.305035 -1.040125
v 1.155604 1.305035 -0.3050112
v 0.1094754 1.061837 -0.6700779
v 0.6384528 1.061838 0.06228729
v -0.1500904 0.7509824 -0.484648
v 0.3769018 0.7509825 0.2449689
v -0.2901143 0.2709824 -0.3855615
v 0.2348929 0.2709826 0.341307
v -1.478708 1.164686 -1.011192
v -1.022275 0.9173626 -1.887456
v -0.7851437 1.164686 -1.600634
v -1.718422 0.9173627 -1.295818
v -1.102072 1.242864 -0.565458
v -0.4110908 1.242864 -1.152705
v -0.6925743 0.9996672 -0.08105801
v -0.00417694 0.9996669 -0.6661094
v -0.4872642 0.688812 0.1630863
v 0.1985498 0.6888117 -0.4197695
v -0.3774505 0.2088119 0.2948655
v 0.3057802 0.2088116 -0.2857949
v -1.158312 1.226857 1.391522
v -1.991451 0.979534 0.8604392
v -1.685049 1.226857 0.649214
v -1.462752 0.9795341 1.605512
v -0.681442 1.305035 1.055176
v -1.206217 1.305035 0.3156331
v -0.1631884 1.061838 0.6894653
v -0.6860018 1.061838 -0.04731274
v 0.09792411 0.7509826 0.5062202
v -0.4229273 0.7509823 -0.2277931
v 0.2387744 0.2709824 0.4083124
v -0.2801151 0.2709823 -0.322936
v 1.422077 1.164686 1.043893
v 0.9583077 0.9173632 1.916297
v 0.7235914 1.164686 1.627495
v 1.659395 0.917363 1.330521
v 1.049194 1.242864 0.5950146
v 0.3533103 1.242864 1.176443
v 0.6437753 0.999667 0.1071958
v -0.04950655 0.9996672 0.6864505
v 0.4405211 0.6888117 -0.1386624
v -0.2501592 0.6888119 0.4384185
v 0.3318169 0.2088116 -0.2713581
v -0.3562618 0.2088119 0.3035491
v 0.08576102 1.016835 2.208819
v -1.117533 0.7105814 2.429868
v -1.01784 1.016835 1.979953
v -0.009821671 0.7105814 2.659586
v 0.2345071 1.113641 1.501696
v -0.8649835 1.113641 1.273684
v 0.3960122 0.8124958 0.7330491
v -0.6993679 0.8124958 0.5058886
v 0.4782365 0.4275721 0.3466973
v -0.6130329 0.4275721 0.1203893
v 0.5233821 -0.1667993 0.1391414
v -0.5637766 -0.1667993 -0.08631408
v -2.236468 1.093819 -0.02770082
v -2.361995 0.7875648 -1.244674
v -1.921337 1.093818 -1.109832
v -2.6783 0.7875651 -0.1585124
v -1.543268 1.190625 0.1763126
v -1.229311 1.190624 -0.9017877
v -0.7897404 0.8894801 0.3978946
v -0.4769567 0.8894798 -0.6761751
v -0.4110706 0.5045565 0.5103127
v -0.09946073 0.5045562 -0.5597263
v -0.2077183 -0.08981477 0.5716762
v 0.1027178 -0.0898151 -0.4943323
v 2.189503 1.093819 0.03012357
v 2.325238 0.7875652 1.246001
v 1.883464 1.093819 1.114861
v 2.632417 0.7875649 0.1572231
v 1.494616 1.190624 -0.1680661
v 1.189716 1.190625 0.9126306
v 0.7392557 0.8894798 -0.3833172
v 0.4354957 0.8894801 0.6933392
v 0.359656 0.5045561 -0.4925537
v 0.05703586 0.5045564 0.5800623
v 0.155796 -0.08981512 -0.5522084
v -0.1456843 -0.08981479 0.5163674
v -0.1514098 1.016834 -2.186831
v 1.049988 0.7105801 -2.417969
v 0.954073 1.016834 -1.967234
v -0.05961262 0.7105801 -2.638384
v -0.2942173 1.11364 -1.478486
v 0.8071477 1.11364 -1.259707
v -0.4492671 0.8124955 -0.7085103
v 0.6479803 0.8124955 -0.4905489
v -0.5282469 0.427572 -0.3214821
v 0.564883 0.427572 -0.1043386
v -0.5716494 -0.1667992 -0.1135545
v 0.5173628 -0.1667991 0.102771

vn 0.4159523 0.8895142 0.1890718
vn 0.6275889 0.724398 0.2852716
vn 0.4177952 0.8884715 0.1899095
vn 0.6275889 0.724398 0.2852716
vn -0.142213 0.987723 -0.06464356
vn -0.1400909 0.9880888 -0.06367899
vn -0.6043106 0.7478994 -0.2746912
vn -0.6032484 0.7489334 -0.2742083
vn -0.826395 0.4194827 -0.3756402
vn -0.8258899 0.4206811 -0.3754106
vn -0.8832718 0.2421446 -0.4014935
vn -0.8832718 0.2421446 -0.4014935
vn -0.2212665 0.8895143 0.3997567
vn -0.3338466 0.7243982 0.6031531
vn -0.2222468 0.8884716 0.4015278
vn -0.3338466 0.7243982 0.6031531
vn 0.07565036 0.987723 -0.1366763
vn 0.07452153 0.9880888 -0.1346368
vn 0.3214642 0.7478991 -0.5807821
vn 0.3208991 0.7489331 -0.5797611
vn 0.4396022 0.4194824 -0.7942194
vn 0.4393336 0.4206808 -0.793734
vn 0.4698578 0.2421442 -0.8488815
vn 0.4698578 0.2421442 -0.8488815
vn -0.4175237 0.8895143 -0.1855755
vn -0.62996 0.724398 -0.2799962
vn -0.4193736 0.8884715 -0.1863977
vn -0.62996 0.724398 -0.2799962
vn 0.1427507 0.9877229 0.06344754
vn 0.1406206 0.9880888 0.06250079
vn 0.6065944 0.7478994 0.2696105
vn 0.6055282 0.7489333 0.2691366
vn 0.829518 0.4194826 0.3686927
vn 0.829011 0.4206811 0.3684674
vn 0.8866095 0.2421445 0.3940682
vn 0.8866095 0.2421445 0.3940682
vn 0.2179043 0.8895141 -0.4015999
vn 0.3287738 0.7243977 -0.6059338
vn 0.2188697 0.8884714 -0.4033792
vn 0.3287738 0.7243977 -0.6059338
vn -0.07450078 0.987723 0.1373058
vn -0.07338908 0.9880889 0.1352569
vn -0.316579 0.7478997 0.5834586
vn -0.3160226 0.7489336 0.582433
vn -0.4329221 0.4194831 0.7978799
vn -0.4326575 0.4206814 0.7973924
vn -0.4627181 0.2421449 0.8527942
vn -0.4627181 0.2421449 0.8527942
vn 0.2851215 0.9361061 -0.2059395
vn 0.4487202 0.8328304 -0.3241045
vn 0.286593 0.9354221 -0.2070023
vn 0.4487202 0.8328304 -0.3241045
vn -0.09455206 0.9931747 0.06829349
vn -0.09316103 0.9933747 0.06728876
vn -0.4372563 0.8420582 0.3158241
vn -0.4361374 0.8429408 0.3150159
vn -0.6823829 0.53984 0.4928757
vn -0.6814703 0.5415911 0.4922166
vn -0.7633771 0.3365105 0.5513766
vn -0.7633771 0.3365105 0.5513766
vn -0.2277695 0.9361063 -0.2680041
vn -0.3584608 0.8328305 -0.4217811
vn -0.228945 0.9354222 -0.2693872
vn -0.3584608 0.8328305 -0.4217811
vn 0.07553337 0.9931747 0.08887547
vn 0.07442214 0.9933746 0.08756796
vn 0.3493031 0.8420582 0.4110052
vn 0.3484093 0.8429407 0.4099535
vn 0.5451229 0.5398399 0.6414155
vn 0.544394 0.5415909 0.6405579
vn 0.6098253 0.3365104 0.7175472
vn 0.6098253 0.3365104 0.7175472
vn -0.2868392 0.9361063 0.2035392
vn -0.451424 0.8328305 0.3203276
vn -0.2883196 0.9354222 0.2045897
vn -0.451424 0.8328305 0.3203276
vn 0.09512214 0.9931746 -0.06749829
vn 0.09372272 0.9933746 -0.06650527
vn 0.4398912 0.842058 -0.3121444
vn 0.4387656 0.8429405 -0.3113457
vn 0.6864948 0.5398394 -0.4871328
vn 0.6855769 0.5415906 -0.4864814
vn 0.7679769 0.3365099 -0.5449519
vn 0.7679769 0.3365099 -0.5449519
vn 0.2255131 0.9361063 0.2699053
vn 0.3549095 0.8328305 0.4247736
vn 0.226677 0.9354222 0.2712983
vn 0.3549095 0.8328305 0.4247736
vn -0.07478478 0.9931746 -0.08950661
vn -0.07368452 0.9933746 -0.08818977
vn -0.3458422 0.842058 -0.413922
vn -0.3449572 0.8429406 -0.4128628
vn -0.5397218 0.5398396 -0.6459672
vn -0.5390001 0.5415907 -0.6451034
vn -0.6037831 0.3365101 -0.7226389
vn -0.6037831 0.3365101 -0.7226389
vn -0.07141967 0.9361063 0.3443897
vn -0.1123995 0.8328304 0.5419962
vn -0.07178827 0.9354222 0.3461671
vn -0.1123995 0.8328304 0.5419962
vn 0.02368436 0.9931746 -0.1142072
vn 0.02333592 0.9933746 -0.112527
vn 0.1095278 0.8420581 -0.5281495
vn 0.1092476 0.8429406 -0.526798
vn 0.1709294 0.5398396 -0.8242308
vn 0.1707008 0.5415907 -0.8231286
vn 0.1912176 0.3365099 -0.9220613
vn 0.1912176 0.3365099 -0.9220613
vn -0.3376897 0.9361063 -0.09834015
vn -0.5314517 0.8328304 -0.1547663
vn -0.3394325 0.9354222 -0.09884769
vn -0.5314517 0.8328304 -0.1547663
vn 0.1119851 0.9931747 0.03261124
vn 0.1103376 0.9933746 0.03213147
vn 0.5178744 0.8420581 0.1508118
vn 0.5165491 0.8429407 0.1504258
vn 0.8081955 0.5398397 0.2353573
vn 0.8071148 0.5415909 0.2350426
vn 0.9041227 0.3365102 0.2632927
vn 0.9041227 0.3365102 0.2632927
vn 0.3385031 0.9361063 0.09550259
vn 0.5327316 0.8328305 0.1503009
vn 0.3402501 0.9354222 0.09599546
vn 0.5327316 0.8328305 0.1503009
vn -0.1122547 0.9931747 -0.03167095
vn -0.1106032 0.9933746 -0.03120501
vn -0.5191216 0.8420581 -0.1464613
vn -0.5177932 0.8429406 -0.1460865
vn -0.810142 0.5398396 -0.2285677
vn -0.8090586 0.5415908 -0.228262
vn -0.9063002 0.3365101 -0.255697
vn -0.9063002 0.3365101 -0.255697
vn 0.06852768 0.9361062 -0.3449771
vn 0.1078479 0.8328303 -0.5429204
vn 0.06888132 0.9354221 -0.3467577
vn 0.1078479 0.8328303 -0.5429204
vn -0.02272514 0.9931747 0.1144014
vn -0.0223908 0.9933746 0.1127183
vn -0.1050925 0.8420582 0.5290496
vn -0.1048236 0.8429407 0.5276958
vn -0.1640074 0.5398398 0.8256358
vn -0.1637881 0.541591 0.8245317
vn -0.183474 0.3365104 0.9236331
vn -0.183474 0.3365104 0.9236331

vt 0.3768091 0.8
vt 0.7581664 1
vt 0.756061 0.8
vt 0.3775018 1
vt 0.3761163 0.6
vt 0.7539557 0.6
vt 0.3754236 0.4
vt 0.7518503 0.4
vt 0.3747309 0.2
vt 0.749745 0.2
vt 0.3740381 0
vt 0.7476396 0
vt 0.3768091 0.8
vt 0.7581664 1
vt 0.756061 0.8
vt 0.3775018 1
vt 0.3761163 0.6
vt 0.7539557 0.6
vt 0.3754236 0.4
vt 0.7518503 0.4
vt 0.3747309 0.2
vt 0.749745 0.2
vt 0.3740381 0
vt 0.7476396 0
vt 0.3768091 0.8
vt 0.7581664 1
vt 0.756061 0.8
vt 0.3775018 1
vt 0.3761163 0.6
vt 0.7539557 0.6
vt 0.3754236 0.4
vt 0.7518503 0.4
vt 0.3747309 0.2
vt 0.749745 0.2
vt 0.3740381 0
vt 0.7476396 0
vt 0.3768091 0.8
vt 0.7581664 1
vt 0.756061 0.8
vt 0.3775018 1
vt 0.3761163 0.6
vt 0.7539557 0.6
vt 0.3754236 0.4
vt 0.7518503 0.4
vt 0.3747309 0.2
vt 0.749745 0.2
vt 0.3740381 0
vt 0.7476396 0
vt 0.3768091 0.8
vt 0.7581664 1
vt 0.756061 0.8
vt 0.3775018 1
vt 0.3761163 0.6
vt 0.7539557 0.6
vt 0.3754236 0.4
vt 0.7518503 0.4
vt 0.3747309 0.2
vt 0.749745 0.2
vt 0.3740381 0
vt 0.7476396 0
vt 0.3768091 0.8
vt 0.7581664 1
vt 0.756061 0.8
vt 0.3775018 1
vt 0.3761163 0.6
vt 0.7539557 0.6
vt 0.3754236 0.4
vt 0.7518503 0.4
vt 0.3747309 0.2
vt 0.749745 0.2
vt 0.3740381 0
vt 0.7476396 0
vt 0.3768091 0.8
vt 0.7581664 1
vt 0.756061 0.8
vt 0.3775018 1
vt 0.3761163 0.6
vt 0.7539557 0.6
vt 0.3754236 0.4
vt 0.7518503 0.4
vt 0.3747309 0.2
vt 0.749745 0.2
vt 0.3740381 0
vt 0.7476396 0
vt 0.3768091 0.8
vt 0.7581664 1
vt 0.756061 0.8
vt 0.3775018 1
vt 0.3761163 0.6
vt 0.7539557 0.6
vt 0.3754236 0.4
vt 0.7518503 0.4
vt 0.3747309 0.2
vt 0.749745 0.2
vt 0.3740381 0
vt 0.7476396 0
vt 0.3768091 0.8
vt 0.7581664 1
vt 0.756061 0.8
vt 0.3775018 1
vt 0.3761163 0.6
vt 0.7539557 0.6
vt 0.3754236 0.4
vt 0.7518503 0.4
vt 0.3747309 0.2
vt 0.749745 0.2
vt 0.3740381 0
vt 0.7476396 0
vt 0.3768091 0.8
vt 0.7581664 1
vt 0.756061 0.8
vt 0.3775018 1
vt 0.3761163 0.6
vt 0.7539557 0.6
vt 0.3754236 0.4
vt 0.7518503 0.4
vt 0.3747309 0.2
vt 0.749745 0.2
vt 0.3740381 0
vt 0.7476396 0
vt 0.3768091 0.8
vt 0.7581664 1
vt 0.756061 0.8
vt 0.3775018 1
vt 0.3761163 0.6
vt 0.7539557 0.6
vt 0.3754236 0.4
vt 0.7518503 0.4
vt 0.3747309 0.2
vt 0.749745 0.2
vt 0.3740381 0
vt 0.7476396 0
vt 0.3768091 0.8
vt 0.7581664 1
vt 0.756061 0.8
vt 0.3775018 1
vt 0.3761163 0.6
vt 0.7539557 0.6
vt 0.3754236 0.4
vt 0.7518503 0.4
vt 0.3747309 0.2
vt 0.749745 0.2
vt 0.3740381 0
vt 0.7476396 0

vt1 0 0
vt1 0 0
vt1 0 0
vt1 0 0
vt1 0 0
vt1 0 0
vt1 0 0
vt1 0 0
vt1 0 0
vt1 0 0
vt1 0 0
vt1 0 0
vt1 0 0
vt1 0 0
vt1 0 0
vt1 0 0
vt1 0 0
vt1 0 0
vt1 0 0
vt1 0 0
vt1 0 0
vt1 0 0
vt1 0 0
vt1 0 0
vt1 0 0
vt1 0 0
vt1 0 0
vt1 0 0
vt1 0 0
vt1 0 0
vt1 0 0
vt1 0 0
vt1 0 0
vt1 0 0
vt1 0 0
vt1 0 0
vt1 0 0
vt1 0 0
vt1 0 0
vt1 0 0
vt1 0 0
vt1 0 0
vt1 0 0
vt1 0 0
vt1 0 0
vt1 0 0
vt1 0 0
vt1 0 0
vt1 0 0
vt1 0 0
vt1 0 0
vt1 0 0
vt1 0 0
vt1 0 0
vt1 0 0
vt1 0 0
vt1 0 0
vt1 0 0
vt1 0 0
vt1 0 0
vt1 0 0
vt1 0 0
vt1 0 0
vt1 0 0
vt1 0 0
vt1 0 0
vt1 0 0
vt1 0 0
vt1 0 0
vt1 0 0
vt1 0 0
vt1 0 0
vt1 0 0
vt1 0 0
vt1 0 0
vt1 0 0
vt1 0 0
vt1 0 0
vt1 0 0
vt1 0 0
vt1 0 0
vt1 0 0
vt1 0 0
vt1 0 0
vt1 0 0
vt1 0 0
vt1 0 0
vt1 0 0
vt1 0 0
vt1 0 0
vt1 0 0
vt1 0 0
vt1 0 0
vt1 0 0
vt1 0 0
vt1 0 0
vt1 0 0
vt1 0 0
vt1 0 0
vt1 0 0
vt1 0 0
vt1 0 0
vt1 0 0
vt1 0 0
vt1 0 0
vt1 0 0
vt1 0 0
vt1 0 0
vt1 0 0
vt1 0 0
vt1 0 0
vt1 0 0
vt1 0 0
vt1 0 0
vt1 0 0
vt1 0 0
vt1 0 0
vt1 0 0
vt1 0 0
vt1 0 0
vt1 0 0
vt1 0 0
vt1 0 0
vt1 0 0
vt1 0 0
vt1 0 0
vt1 0 0
vt1 0 0
vt1 0 0
vt1 0 0
vt1 0 0
vt1 0 0
vt1 0 0
vt1 0 0
vt1 0 0
vt1 0 0
vt1 0 0
vt1 0 0
vt1 0 0
vt1 0 0
vt1 0 0
vt1 0 0
vt1 0 0
vt1 0 0

vt2 0 0
vt2 0 0
vt2 0 0
vt2 0 0
vt2 0 0
vt2 0 0
vt2 0 0
vt2 0 0
vt2 0 0
vt2 0 0
vt2 0 0
vt2 0 0
vt2 0 0
vt2 0 0
vt2 0 0
vt2 0 0
vt2 0 0
vt2 0 0
vt2 0 0
vt2 0 0
vt2 0 0
vt2 0 0
vt2 0 0
vt2 0 0
vt2 0 0
vt2 0 0
vt2 0 0
vt2 0 0
vt2 0 0
vt2 0 0
vt2 0 0
vt2 0 0
vt2 0 0
vt2 0 0
vt2 0 0
vt2 0 0
vt2 0 0
vt2 0 0
vt2 0 0
vt2 0 0
vt2 0 0
vt2 0 0
vt2 0 0
vt2 0 0
vt2 0 0
vt2 0 0
vt2 0 0
vt2 0 0
vt2 0 0
vt2 0 0
vt2 0 0
vt2 0 0
vt2 0 0
vt2 0 0
vt2 0 0
vt2 0 0
vt2 0 0
vt2 0 0
vt2 0 0
vt2 0 0
vt2 0 0
vt2 0 0
vt2 0 0
vt2 0 0
vt2 0 0
vt2 0 0
vt2 0 0
vt2 0 0
vt2 0 0
vt2 0 0
vt2 0 0
vt2 0 0
vt2 0 0
vt2 0 0
vt2 0 0
vt2 0 0
vt2 0 0
vt2 0 0
vt2 0 0
vt2 0 0
vt2 0 0
vt2 0 0
vt2 0 0
vt2 0 0
vt2 0 0
vt2 0 0
vt2 0 0
vt2 0 0
vt2 0 0
vt2 0 0
vt2 0 0
vt2 0 0
vt2 0 0
vt2 0 0
vt2 0 0
vt2 0 0
vt2 0 0
vt2 0 0
vt2 0 0
vt2 0 0
vt2 0 0
vt2 0 0
vt2 0 0
vt2 0 0
vt2 0 0
vt2 0 0
vt2 0 0
vt2 0 0
vt2 0 0
vt2 0 0
vt2 0 0
vt2 0 0
vt2 0 0
vt2 0 0
vt2 0 0
vt2 0 0
vt2 0 0
vt2 0 0
vt2 0 0
vt2 0 0
vt2 0 0
vt2 0 0
vt2 0 0
vt2 0 0
vt2 0 0
vt2 0 0
vt2 0 0
vt2 0 0
vt2 0 0
vt2 0 0
vt2 0 0
vt2 0 0
vt2 0 0
vt2 0 0
vt2 0 0
vt2 0 0
vt2 0 0
vt2 0 0
vt2 0 0
vt2 0 0
vt2 0 0
vt2 0 0
vt2 0 0
vt2 0 0

vc 1 1 1 1
vc 1 1 1 1
vc 1 1 1 1
vc 1 1 1 1
vc 1 1 1 1
vc 1 1 1 1
vc 1 1 1 1
vc 1 1 1 1
vc 1 1 1 1
vc 1 1 1 1
vc 1 1 1 1
vc 1 1 1 1
vc 1 1 1 1
vc 1 1 1 1
vc 1 1 1 1
vc 1 1 1 1
vc 1 1 1 1
vc 1 1 1 1
vc 1 1 1 1
vc 1 1 1 1
vc 1 1 1 1
vc 1 1 1 1
vc 1 1 1 1
vc 1 1 1 1
vc 1 1 1 1
vc 1 1 1 1
vc 1 1 1 1
vc 1 1 1 1
vc 1 1 1 1
vc 1 1 1 1
vc 1 1 1 1
vc 1 1 1 1
vc 1 1 1 1
vc 1 1 1 1
vc 1 1 1 1
vc 1 1 1 1
vc 1 1 1 1
vc 1 1 1 1
vc 1 1 1 1
vc 1 1 1 1
vc 1 1 1 1
vc 1 1 1 1
vc 1 1 1 1
vc 1 1 1 1
vc 1 1 1 1
vc 1 1 1 1
vc 1 1 1 1
vc 1 1 1 1
vc 1 1 1 1
vc 1 1 1 1
vc 1 1 1 1
vc 1 1 1 1
vc 1 1 1 1
vc 1 1 1 1
vc 1 1 1 1
vc 1 1 1 1
vc 1 1 1 1
vc 1 1 1 1
vc 1 1 1 1
vc 1 1 1 1
vc 1 1 1 1
vc 1 1 1 1
vc 1 1 1 1
vc 1 1 1 1
vc 1 1 1 1
vc 1 1 1 1
vc 1 1 1 1
vc 1 1 1 1
vc 1 1 1 1
vc 1 1 1 1
vc 1 1 1 1
vc 1 1 1 1
vc 1 1 1 1
vc 1 1 1 1
vc 1 1 1 1
vc 1 1 1 1
vc 1 1 1 1
vc 1 1 1 1
vc 1 1 1 1
vc 1 1 1 1
vc 1 1 1 1
vc 1 1 1 1
vc 1 1 1 1
vc 1 1 1 1
vc 1 1 1 1
vc 1 1 1 1
vc 1 1 1 1
vc 1 1 1 1
vc 1 1 1 1
vc 1 1 1 1
vc 1 1 1 1
vc 1 1 1 1
vc 1 1 1 1
vc 1 1 1 1
vc 1 1 1 1
vc 1 1 1 1
vc 1 1 1 1
vc 1 1 1 1
vc 1 1 1 1
vc 1 1 1 1
vc 1 1 1 1
vc 1 1 1 1
vc 1 1 1 1
vc 1 1 1 1
vc 1 1 1 1
vc 1 1 1 1
vc 1 1 1 1
vc 1 1 1 1
vc 1 1 1 1
vc 1 1 1 1
vc 1 1 1 1
vc 1 1 1 1
vc 1 1 1 1
vc 1 1 1 1
vc 1 1 1 1
vc 1 1 1 1
vc 1 1 1 1
vc 1 1 1 1
vc 1 1 1 1
vc 1 1 1 1
vc 1 1 1 1
vc 1 1 1 1
vc 1 1 1 1
vc 1 1 1 1
vc 1 1 1 1
vc 1 1 1 1
vc 1 1 1 1
vc 1 1 1 1
vc 1 1 1 1
vc 1 1 1 1
vc 1 1 1 1
vc 1 1 1 1
vc 1 1 1 1
vc 1 1 1 1
vc 1 1 1 1
vc 1 1 1 1
vc 1 1 1 1
vc 1 1 1 1
vc 1 1 1 1
vc 1 1 1 1
vc 1 1 1 1
vc 1 1 1 1
vc 1 1 1 1
vc 1 1 1 1
f 1/1/1 3/3/3 2/2/2
f 1/1/1 2/2/2 4/4/4
f 5/5/5 3/3/3 1/1/1
f 5/5/5 6/6/6 3/3/3
f 7/7/7 6/6/6 5/5/5
f 7/7/7 8/8/8 6/6/6
f 9/9/9 8/8/8 7/7/7
f 9/9/9 10/10/10 8/8/8
f 11/11/11 10/10/10 9/9/9
f 11/11/11 12/12/12 10/10/10
f 13/13/13 15/15/15 14/14/14
f 13/13/13 14/14/14 16/16/16
f 17/17/17 15/15/15 13/13/13
f 17/17/17 18/18/18 15/15/15
f 19/19/19 18/18/18 17/17/17
f 19/19/19 20/20/20 18/18/18
f 21/21/21 20/20/20 19/19/19
f 21/21/21 22/22/22 20/20/20
f 23/23/23 22/22/22 21/21/21
f 23/23/23 24/24/24 22/22/22
f 25/25/25 27/27/27 26/26/26
f 25/25/25 26/26/26 28/28/28
f 29/29/29 27/27/27 25/25/25
f 29/29/29 30/30/30 27/27/27
f 31/31/31 30/30/30 29/29/29
f 31/31/31 32/32/32 30/30/30
f 33/33/33 32/32/32 31/31/31
f 33/33/33 34/34/34 32/32/32
f 35/35/35 34/34/34 33/33/33
f 35/35/35 36/36/36 34/34/34
f 37/37/37 39/39/39 38/38/38
f 37/37/37 38/38/38 40/40/40
f 41/41/41 39/39/39 37/37/37
f 41/41/41 42/42/42 39/39/39
f 43/43/43 42/42/42 41/41/41
f 43/43/43 44/44/44 42/42/42
f 45/45/45 44/44/44 43/43/43
f 45/45/45 46/46/46 44/44/44
f 47/47/47 46/46/46 45/45/45
f 47/47/47 48/48/48 46/46/46
f 49/49/49 51/51/51 50/50/50
f 49/49/49 50/50/50 52/52/52
f 53/53/53 51/51/51 49/49/49
f 53/53/53 54/54/54 51/51/51
f 55/55/55 54/54/54 53/53/53
f 55/55/55 56/56/56 54/54/54
f 57/57/57 56/56/56 55/55/55
f 57/57/57 58/58/58 56/56/56
f 59/59/59 58/58/58 57/57/57
f 59/59/59 60/60/60 58/58/58
f 61/61/61 63/63/63 62/62/62
f 61/61/61 62/62/62 64/64/64
f 65/65/65 63/63/63 61/61/61
f 65/65/65 66/66/66 63/63/63
f 67/67/67 66/66/66 65/65/65
f 67/67/67 68/68/68 66/66/66
f 69/69/69 68/68/68 67/67/67
f 69/69/69 70/70/70 68/68/68
f 71/71/71 70/70/70 69/69/69
f 71/71/71 72/72/72 70/70/70
f 73/73/73 75/75/75 74/74/74
f 73/73/73 74/74/74 76/76/76
f 77/77/77 75/75/75 73/73/73
f 77/77/77 78/78/78 75/75/75
f 79/79/79 78/78/78 77/77/77
f 79/79/79 80/80/80 78/78/78
f 81/81/81 80/80/80 79/79/79
f 81/81/81 82/82/82 80/80/80
f 83/83/83 82/82/82 81/81/81
f 83/83/83 84/84/84 82/82/82
f 85/85/85 87/87/87 86/86/86
f 85/85/85 86/86/86 88/88/88
f 89/89/89 87/87/87 85/85/85
f 89/89/89 90/90/90 87/87/87
f 91/91/91 90/90/90 89/89/89
f 91/91/91 92/92/92 90/90/90
f 93/93/93 92/92/92 91/91/91
f 93/93/93 94/94/94 92/92/92
f 95/95/95 94/94/94 93/93/93
f 95/95/95 96/96/96 94/94/94
f 97/97/97 99/99/99 98/98/98
f 97/97/97 98/98/98 100/100/100
f 101/101/101 99/99/99 97/97/97
f 101/101/101 102/102/102 99/99/99
f 103/103/103 102/102/102 101/101/101
f 103/103/103 104/104/104 102/102/102
f 105/105/105 104/104/104 103/103/103
f 105/105/105 106/106/106 104/104/104
f 107/107/107 106/106/106 105/105/105
f 107/107/107 108/108/108 106/106/106
f 109/109/109 111/111/111 110/110/110
f 109/109/109 110/110/110 112/112/112
f 113/113/113 111/111/111 109/109/109
f 113/113/113 114/114/114 111/111/111
f 115/115/115 114/114/114 113/113/113
f 115/115/115 116/116/116 114/114/114
f 117/117/117 116/116/116 115/115/115
f 117/117/117 118/118/118 116/116/116
f 119/119/119 118/118/118 117/117/117
f 119/119/119 120/120/120 118/118/118
f 121/121/121 123/123/123 122/122/122
f 121/121/121 123/123/123 122/122/122
f 121/121/121 122/122/122 124/124/124
f 121/121/121 122/122/122 124/124/124
f 125/125/125 123/123/123 121/121/121
f 125/125/125 123/123/123 121/121/121
f 125/125/125 126/126/126 123/123/123
f 125/125/125 126/126/126 123/123/123
f 127/127/127 126/126/126 125/125/125
f 127/127/127 126/126/126 125/125/125
f 127/127/127 128/128/128 126/126/126
f 127/127/127 128/128/128 126/126/126
f 129/129/129 128/128/128 127/127/127
f 129/129/129 128/128/128 127/127/127
f 129/129/129 130/130/130 128/128/128
f 129/129/129 130/130/130 128/128/128
f 131/131/131 130/130/130 129/129/129
f 131/131/131 130/130/130 129/129/129
f 131/131/131 132/132/132 130/130/130
f 131/131/131 132/132/132 130/130/130
f 133/133/133 135/135/135 134/134/134
f 133/133/133 134/134/134 136/136/136
f 137/137/137 135/135/135 133/133/133
f 137/137/137 138/138/138 135/135/135
f 139/139/139 138/138/138 137/137/137
f 139/139/139 140/140/140 138/138/138
f 141/141/141 140/140/140 139/139/139
f 141/141/141 142/142/142 140/140/140
f 143/143/143 142/142/142 141/141/141
f 143/143/143 144/144/144 142/142/142

