g Exported Mesh Combined Mesh 
v 2.294415 2.521807E-06 -0.1651915
v 2.294417 -0.999999 0.9999975
v 2.294416 -0.2618249 0.9999982
v 2.294416 -0.9999978 -2.646788E-06
v 1.173384E-06 -1.831089E-06 1.536029
v -1.725629 -1.000004 1.536029
v -1.725631 -3.579638E-06 1.53603
v 2.186664E-06 -1.000002 1.536028
v -3.700152E-07 1.512532 1.52192
v -1.280954 1.262824 1.521921
v -2.292088 -2.322527E-06 1.75094E-06
v -1.825693 -0.9999989 -2.560318
v -1.624809 1.405753E-06 -2.560318
v -2.532534 -1.000003 1.04055E-06
v -0.03012615 3.021613E-06 -2.560319
v 1.437551 -0.9999975 -1.000002
v 1.390324 2.600881E-06 -1.000001
v -0.02135583 -0.9999971 -2.56032
v 1.01328E-06 -1 -8.940697E-07
v -1.725629 -1.000004 1.536029
v 2.186664E-06 -1.000002 1.536028
v -2.532534 -1.000003 1.04055E-06
v -0.02135583 -0.9999971 -2.56032
v -1.825693 -0.9999989 -2.560318
v 1.437551 -0.9999975 -1.000002
v 2.294416 -0.9999978 -2.646788E-06
v 2.294417 -0.999999 0.9999975
v -1.554584E-06 1.888348 0.4697457
v 1 0.9999999 1
v -3.700152E-07 1.512532 1.52192
v 0.9999989 1.377602 4.677647E-07
v 1.390324 2.600881E-06 -1.000001
v 2.294416 -0.9999978 -2.646788E-06
v 2.294415 2.521807E-06 -0.1651915
v 1.437551 -0.9999975 -1.000002
v 0.9999985 1.000002 -1
v 2.294415 2.521807E-06 -0.1651915
v 0.9999989 1.377602 4.677647E-07
v 1.390324 2.600881E-06 -1.000001
v 0.9999989 1.377602 4.677647E-07
v 2.294416 -0.2618249 0.9999982
v 1 0.9999999 1
v 2.294415 2.521807E-06 -0.1651915
v 2.294416 -0.2618249 0.9999982
v 2.186664E-06 -1.000002 1.536028
v 1.173384E-06 -1.831089E-06 1.536029
v 2.294417 -0.999999 0.9999975
v 1 0.9999999 1
v 1.173384E-06 -1.831089E-06 1.536029
v -3.700152E-07 1.512532 1.52192
v 2.294416 -0.2618249 0.9999982
v -1.725631 -3.579638E-06 1.53603
v -2.532534 -1.000003 1.04055E-06
v -2.292088 -2.322527E-06 1.75094E-06
v -1.725629 -1.000004 1.536029
v -1.280954 1.262824 1.521921
v -2.292088 -2.322527E-06 1.75094E-06
v -1.459795 1.740605 0.7214516
v -1.725631 -3.579638E-06 1.53603
v -1.459795 1.740605 0.7214516
v -1.624809 1.405753E-06 -2.560318
v -1.069637 1.726879 -0.878253
v -2.292088 -2.322527E-06 1.75094E-06
v -1.624809 1.405753E-06 -2.560318
v -0.02135583 -0.9999971 -2.56032
v -0.03012615 3.021613E-06 -2.560319
v -1.825693 -0.9999989 -2.560318
v -1.069637 1.726879 -0.878253
v -0.03012615 3.021613E-06 -2.560319
v -2.703556E-06 1.915863 -0.9978315
v -1.624809 1.405753E-06 -2.560318
v -2.703556E-06 1.915863 -0.9978315
v 1.390324 2.600881E-06 -1.000001
v 0.9999985 1.000002 -1
v -0.03012615 3.021613E-06 -2.560319
v -2.703556E-06 1.915863 -0.9978315
v 0.9999989 1.377602 4.677647E-07
v -1.554584E-06 1.888348 0.4697457
v 0.9999985 1.000002 -1
v -1.069637 1.726879 -0.878253
v -1.554584E-06 1.888348 0.4697457
v -1.459795 1.740605 0.7214516
v -2.703556E-06 1.915863 -0.9978315
v -1.459795 1.740605 0.7214516
v -3.700152E-07 1.512532 1.52192
v -1.280954 1.262824 1.521921
v -1.554584E-06 1.888348 0.4697457

vn 1 1.01328E-06 -7.639063E-07
vn 1 1.01328E-06 -7.639063E-07
vn 1 1.01328E-06 -7.639063E-07
vn 1 1.01328E-06 -7.639063E-07
vn 7.639073E-07 -8.940688E-07 1
vn 7.639073E-07 -8.940688E-07 1
vn 7.639073E-07 -8.940688E-07 1
vn 7.639073E-07 -8.940688E-07 1
vn -0.0008551143 0.01030405 0.9999465
vn -0.0008551143 0.01030405 0.9999465
vn -0.9446143 0.2084434 -0.2534863
vn -0.9446143 0.2084434 -0.2534863
vn -0.9446143 0.2084434 -0.2534863
vn -0.9446143 0.2084434 -0.2534863
vn 0.7347922 0.0205738 -0.6779802
vn 0.7347922 0.0205738 -0.6779802
vn 0.7347922 0.0205738 -0.6779802
vn 0.7347922 0.0205738 -0.6779802
vn 1.013279E-06 -1 -1.192094E-06
vn 1.013279E-06 -1 -1.192094E-06
vn 1.013279E-06 -1 -1.192094E-06
vn 1.013279E-06 -1 -1.192094E-06
vn 1.013279E-06 -1 -1.192094E-06
vn 1.013279E-06 -1 -1.192094E-06
vn 1.013279E-06 -1 -1.192094E-06
vn 1.013279E-06 -1 -1.192094E-06
vn 1.013279E-06 -1 -1.192094E-06
vn 0.5456812 0.7866536 0.2888048
vn 0.5456812 0.7866536 0.2888048
vn 0.5456812 0.7866536 0.2888048
vn 0.5456812 0.7866536 0.2888048
vn 0.7208968 -0.04012183 -0.6918802
vn 0.7208968 -0.04012183 -0.6918802
vn 0.7208968 -0.04012183 -0.6918802
vn 0.7208968 -0.04012183 -0.6918802
vn 0.709309 0.5345352 -0.4595138
vn 0.709309 0.5345352 -0.4595138
vn 0.709309 0.5345352 -0.4595138
vn 0.709309 0.5345352 -0.4595138
vn 0.7056412 0.6795551 0.2006873
vn 0.7056412 0.6795551 0.2006873
vn 0.7056412 0.6795551 0.2006873
vn 0.7056412 0.6795551 0.2006873
vn 0.2274982 -6.401064E-07 0.9737785
vn 0.2274982 -6.401064E-07 0.9737785
vn 0.2274982 -6.401064E-07 0.9737785
vn 0.2274982 -6.401064E-07 0.9737785
vn 0.3359445 0.1614581 0.92794
vn 0.3359445 0.1614581 0.92794
vn 0.3359445 0.1614581 0.92794
vn 0.3359445 0.1614581 0.92794
vn -0.9074774 0.1090989 0.4056873
vn -0.9074774 0.1090989 0.4056873
vn -0.9074774 0.1090989 0.4056873
vn -0.9074774 0.1090989 0.4056873
vn -0.8903372 0.2973396 0.3448028
vn -0.8903372 0.2973396 0.3448028
vn -0.8903372 0.2973396 0.3448028
vn -0.8903372 0.2973396 0.3448028
vn -0.8453763 0.4883317 -0.2164972
vn -0.8453763 0.4883317 -0.2164972
vn -0.8453763 0.4883317 -0.2164972
vn -0.8453763 0.4883317 -0.2164972
vn -7.639073E-07 8.940688E-07 -1
vn -7.639073E-07 8.940688E-07 -1
vn -7.639073E-07 8.940688E-07 -1
vn -7.639073E-07 8.940688E-07 -1
vn -0.08065005 0.6701431 -0.7378373
vn -0.08065005 0.6701431 -0.7378373
vn -0.08065005 0.6701431 -0.7378373
vn -0.08065005 0.6701431 -0.7378373
vn 0.5979764 0.4347099 -0.6733881
vn 0.5979764 0.4347099 -0.6733881
vn 0.5979764 0.4347099 -0.6733881
vn 0.5979764 0.4347099 -0.6733881
vn 0.5583815 0.8213592 -0.1165299
vn 0.5583815 0.8213592 -0.1165299
vn 0.5583815 0.8213592 -0.1165299
vn 0.5583815 0.8213592 -0.1165299
vn -0.1337602 0.9909341 -0.01255939
vn -0.1337602 0.9909341 -0.01255939
vn -0.1337602 0.9909341 -0.01255939
vn -0.1337602 0.9909341 -0.01255939
vn -0.09172182 0.9010101 0.4239905
vn -0.09172182 0.9010101 0.4239905
vn -0.09172182 0.9010101 0.4239905
vn -0.09172182 0.9010101 0.4239905

vt 0.1253394 0.5511463
vt 0 0.4646877
vt 0.004386046 0.5347916
vt 0.1024706 0.4573835
vt 0.6115074 0.09484474
vt 0.4329558 0.003246772
vt 0.4329557 0.09809151
vt 0.6115074 0
vt 0.6117278 0.2384765
vt 0.5082575 0.265009
vt 0.272502 0.09797628
vt 0 0.01233927
vt 0.0005623971 0.1057994
vt 0.2739893 0
vt 0.4115492 0.551766
vt 0.2312994 0.4617876
vt 0.2372411 0.5567569
vt 0.4115492 0.4594359
vt 0.5936906 0.6471073
vt 0.4329557 0.4820018
vt 0.4329558 0.6471074
vt 0.5936905 0.4589962
vt 0.8616102 0.6471073
vt 0.8616102 0.5601283
vt 0.6983337 0.7427857
vt 0.5936906 0.8666331
vt 0.4890475 0.8666331
vt 0.1211665 0.8888228
vt 0.03824169 0.6663347
vt 0.008168829 0.7278673
vt 0.1395254 0.6400608
vt 0.2372411 0.5567569
vt 0.1024706 0.4573835
vt 0.1253394 0.5511463
vt 0.2312994 0.4617876
vt 0.2431828 0.6517263
vt 0.1253394 0.5511463
vt 0.1395254 0.6400608
vt 0.2372411 0.5567569
vt 0.1395254 0.6400608
vt 0.004386046 0.5347916
vt 0.03824169 0.6663347
vt 0.1253394 0.5511463
vt 0.8572854 0.07237465
vt 0.6115074 0
vt 0.6115074 0.09484474
vt 0.8572854 0.002362724
vt 0.723352 0.1944876
vt 0.6115074 0.09484474
vt 0.6117278 0.2384765
vt 0.8572854 0.07237465
vt 0.4329557 0.09921593
vt 0.2739893 0
vt 0.272502 0.09797628
vt 0.4329558 0.004516631
vt 0.4269933 0.2769431
vt 0.272502 0.09797628
vt 0.3225331 0.4573835
vt 0.4329557 0.09921593
vt 0.3225331 0.4573835
vt 0.0005623971 0.1057994
vt 0.1649574 0.3418325
vt 0.272502 0.09797628
vt 0.8651125 0.9113123
vt 0.9639083 1
vt 1 0.9193668
vt 0.868983 0.9943319
vt 0.8616102 0.6276842
vt 1 0.9193668
vt 0.9910942 0.6153538
vt 0.8651125 0.9113123
vt 0.2739685 0.8273619
vt 0.2372411 0.5567569
vt 0.2431828 0.6517263
vt 0.4115492 0.551766
vt 0.2739685 0.8273619
vt 0.1395254 0.6400608
vt 0.1211665 0.8888228
vt 0.2431828 0.6517263
vt 0.8616102 0.6276842
vt 1 0.4983862
vt 0.897842 0.4589962
vt 0.9910942 0.6153538
vt 0.5238801 0.4589962
vt 0.6117278 0.2384765
vt 0.5082575 0.265009
vt 0.6273504 0.4189768

vt1 0 0
vt1 0 0
vt1 0 0
vt1 0 0
vt1 0 0
vt1 0 0
vt1 0 0
vt1 0 0
vt1 0 0
vt1 0 0
vt1 0 0
vt1 0 0
vt1 0 0
vt1 0 0
vt1 0 0
vt1 0 0
vt1 0 0
vt1 0 0
vt1 0 0
vt1 0 0
vt1 0 0
vt1 0 0
vt1 0 0
vt1 0 0
vt1 0 0
vt1 0 0
vt1 0 0
vt1 0 0
vt1 0 0
vt1 0 0
vt1 0 0
vt1 0 0
vt1 0 0
vt1 0 0
vt1 0 0
vt1 0 0
vt1 0 0
vt1 0 0
vt1 0 0
vt1 0 0
vt1 0 0
vt1 0 0
vt1 0 0
vt1 0 0
vt1 0 0
vt1 0 0
vt1 0 0
vt1 0 0
vt1 0 0
vt1 0 0
vt1 0 0
vt1 0 0
vt1 0 0
vt1 0 0
vt1 0 0
vt1 0 0
vt1 0 0
vt1 0 0
vt1 0 0
vt1 0 0
vt1 0 0
vt1 0 0
vt1 0 0
vt1 0 0
vt1 0 0
vt1 0 0
vt1 0 0
vt1 0 0
vt1 0 0
vt1 0 0
vt1 0 0
vt1 0 0
vt1 0 0
vt1 0 0
vt1 0 0
vt1 0 0
vt1 0 0
vt1 0 0
vt1 0 0
vt1 0 0
vt1 0 0
vt1 0 0
vt1 0 0
vt1 0 0
vt1 0 0
vt1 0 0
vt1 0 0

vt2 0 0
vt2 0 0
vt2 0 0
vt2 0 0
vt2 0 0
vt2 0 0
vt2 0 0
vt2 0 0
vt2 0 0
vt2 0 0
vt2 0 0
vt2 0 0
vt2 0 0
vt2 0 0
vt2 0 0
vt2 0 0
vt2 0 0
vt2 0 0
vt2 0 0
vt2 0 0
vt2 0 0
vt2 0 0
vt2 0 0
vt2 0 0
vt2 0 0
vt2 0 0
vt2 0 0
vt2 0 0
vt2 0 0
vt2 0 0
vt2 0 0
vt2 0 0
vt2 0 0
vt2 0 0
vt2 0 0
vt2 0 0
vt2 0 0
vt2 0 0
vt2 0 0
vt2 0 0
vt2 0 0
vt2 0 0
vt2 0 0
vt2 0 0
vt2 0 0
vt2 0 0
vt2 0 0
vt2 0 0
vt2 0 0
vt2 0 0
vt2 0 0
vt2 0 0
vt2 0 0
vt2 0 0
vt2 0 0
vt2 0 0
vt2 0 0
vt2 0 0
vt2 0 0
vt2 0 0
vt2 0 0
vt2 0 0
vt2 0 0
vt2 0 0
vt2 0 0
vt2 0 0
vt2 0 0
vt2 0 0
vt2 0 0
vt2 0 0
vt2 0 0
vt2 0 0
vt2 0 0
vt2 0 0
vt2 0 0
vt2 0 0
vt2 0 0
vt2 0 0
vt2 0 0
vt2 0 0
vt2 0 0
vt2 0 0
vt2 0 0
vt2 0 0
vt2 0 0
vt2 0 0
vt2 0 0

vc 1 1 1 1
vc 1 1 1 1
vc 1 1 1 1
vc 1 1 1 1
vc 1 1 1 1
vc 1 1 1 1
vc 1 1 1 1
vc 1 1 1 1
vc 1 1 1 1
vc 1 1 1 1
vc 1 1 1 1
vc 1 1 1 1
vc 1 1 1 1
vc 1 1 1 1
vc 1 1 1 1
vc 1 1 1 1
vc 1 1 1 1
vc 1 1 1 1
vc 1 1 1 1
vc 1 1 1 1
vc 1 1 1 1
vc 1 1 1 1
vc 1 1 1 1
vc 1 1 1 1
vc 1 1 1 1
vc 1 1 1 1
vc 1 1 1 1
vc 1 1 1 1
vc 1 1 1 1
vc 1 1 1 1
vc 1 1 1 1
vc 1 1 1 1
vc 1 1 1 1
vc 1 1 1 1
vc 1 1 1 1
vc 1 1 1 1
vc 1 1 1 1
vc 1 1 1 1
vc 1 1 1 1
vc 1 1 1 1
vc 1 1 1 1
vc 1 1 1 1
vc 1 1 1 1
vc 1 1 1 1
vc 1 1 1 1
vc 1 1 1 1
vc 1 1 1 1
vc 1 1 1 1
vc 1 1 1 1
vc 1 1 1 1
vc 1 1 1 1
vc 1 1 1 1
vc 1 1 1 1
vc 1 1 1 1
vc 1 1 1 1
vc 1 1 1 1
vc 1 1 1 1
vc 1 1 1 1
vc 1 1 1 1
vc 1 1 1 1
vc 1 1 1 1
vc 1 1 1 1
vc 1 1 1 1
vc 1 1 1 1
vc 1 1 1 1
vc 1 1 1 1
vc 1 1 1 1
vc 1 1 1 1
vc 1 1 1 1
vc 1 1 1 1
vc 1 1 1 1
vc 1 1 1 1
vc 1 1 1 1
vc 1 1 1 1
vc 1 1 1 1
vc 1 1 1 1
vc 1 1 1 1
vc 1 1 1 1
vc 1 1 1 1
vc 1 1 1 1
vc 1 1 1 1
vc 1 1 1 1
vc 1 1 1 1
vc 1 1 1 1
vc 1 1 1 1
vc 1 1 1 1
vc 1 1 1 1
f 1/1/1 3/3/3 2/2/2
f 1/1/1 2/2/2 4/4/4
f 5/5/5 7/7/7 6/6/6
f 5/5/5 6/6/6 8/8/8
f 9/9/9 7/7/7 5/5/5
f 9/9/9 10/10/10 7/7/7
f 11/11/11 13/13/13 12/12/12
f 11/11/11 12/12/12 14/14/14
f 15/15/15 17/17/17 16/16/16
f 15/15/15 16/16/16 18/18/18
f 19/19/19 21/21/21 20/20/20
f 19/19/19 20/20/20 22/22/22
f 23/23/23 19/19/19 22/22/22
f 23/23/23 22/22/22 24/24/24
f 25/25/25 19/19/19 23/23/23
f 25/25/25 26/26/26 19/19/19
f 26/26/26 21/21/21 19/19/19
f 26/26/26 27/27/27 21/21/21
f 28/28/28 30/30/30 29/29/29
f 28/28/28 29/29/29 31/31/31
f 32/32/32 34/34/34 33/33/33
f 32/32/32 33/33/33 35/35/35
f 36/36/36 38/38/38 37/37/37
f 36/36/36 37/37/37 39/39/39
f 40/40/40 42/42/42 41/41/41
f 40/40/40 41/41/41 43/43/43
f 44/44/44 46/46/46 45/45/45
f 44/44/44 45/45/45 47/47/47
f 48/48/48 50/50/50 49/49/49
f 48/48/48 49/49/49 51/51/51
f 52/52/52 54/54/54 53/53/53
f 52/52/52 53/53/53 55/55/55
f 56/56/56 58/58/58 57/57/57
f 56/56/56 57/57/57 59/59/59
f 60/60/60 62/62/62 61/61/61
f 60/60/60 61/61/61 63/63/63
f 64/64/64 66/66/66 65/65/65
f 64/64/64 65/65/65 67/67/67
f 68/68/68 70/70/70 69/69/69
f 68/68/68 69/69/69 71/71/71
f 72/72/72 74/74/74 73/73/73
f 72/72/72 73/73/73 75/75/75
f 76/76/76 78/78/78 77/77/77
f 76/76/76 77/77/77 79/79/79
f 80/80/80 82/82/82 81/81/81
f 80/80/80 81/81/81 83/83/83
f 84/84/84 86/86/86 85/85/85
f 84/84/84 85/85/85 87/87/87

