g Exported Mesh Combined Mesh 
v 2.294415 5.907646E-08 -0.1651898
v 2.294415 -1 1
v 2.294415 -0.2618264 1
v 2.294415 -1 -5.960464E-08
v -3.049376E-23 -5.493267E-07 1.536029
v -1.725632 -1.000001 1.536029
v -1.725632 -5.493267E-07 1.536029
v -1.224647E-16 -1.000001 1.536029
v 1.85232E-16 1.512534 1.521919
v -1 1.772443 1.521919
v -1.725632 2.113289E-16 0
v -0.9090774 -0.9999992 -2.560319
v -1 9.156412E-07 -2.560319
v -1.966079 -1 -5.960464E-08
v 0.2917872 9.156412E-07 -2.560319
v 1 -0.9999998 -1
v 1 3.576279E-07 -1
v -1.224646E-16 -0.9999992 -2.560319
v -1.224647E-16 -1 -5.960464E-08
v -1.725632 -1.000001 1.536029
v -1.224647E-16 -1.000001 1.536029
v -1.966079 -1 -5.960464E-08
v -1.224646E-16 -0.9999992 -2.560319
v -0.9090774 -0.9999992 -2.560319
v 1 -0.9999998 -1
v 2.294415 -1 -5.960464E-08
v 2.294415 -1 1
v 4.02206E-16 3.284261 0.5219185
v 1 0.9999998 1
v 1.85232E-16 1.512534 1.521919
v 1 0.8002545 4.769888E-08
v 1 3.576279E-07 -1
v 2.294415 -1 -5.960464E-08
v 2.294415 5.907646E-08 -0.1651898
v 1 -0.9999998 -1
v 1 1 -1
v 2.294415 5.907646E-08 -0.1651898
v 1 0.8002545 4.769888E-08
v 1 1 -1
v 1 3.576279E-07 -1
v 1 0.8002545 4.769888E-08
v 2.294415 -0.2618264 1
v 1 0.9999998 1
v 2.294415 5.907646E-08 -0.1651898
v 2.294415 -0.2618264 1
v -1.224647E-16 -1.000001 1.536029
v -3.049376E-23 -5.493267E-07 1.536029
v 2.294415 -1 1
v 1 0.9999998 1
v -3.049376E-23 -5.493267E-07 1.536029
v 1.85232E-16 1.512534 1.521919
v 2.294415 -0.2618264 1
v -1.725632 -5.493267E-07 1.536029
v -1.966079 -1 -5.960464E-08
v -1.725632 2.113289E-16 0
v -1.725632 -1.000001 1.536029
v -1 1.772443 1.521919
v -1.725632 2.113289E-16 0
v -1 3.686369 0.5219186
v -1.725632 -5.493267E-07 1.536029
v -1 3.686369 0.5219186
v -1 9.156412E-07 -2.560319
v -1.226988 2.511818 -0.9999999
v -1.725632 2.113289E-16 0
v -1 9.156412E-07 -2.560319
v -1.224646E-16 -0.9999992 -2.560319
v 0.2917872 9.156412E-07 -2.560319
v -0.9090774 -0.9999992 -2.560319
v -1.226988 2.511818 -0.9999999
v 0.2917872 9.156412E-07 -2.560319
v 3.37286E-16 2.754149 -0.9999999
v -1 9.156412E-07 -2.560319
v 3.37286E-16 2.754149 -0.9999999
v 1 3.576279E-07 -1
v 1 1 -1
v 0.2917872 9.156412E-07 -2.560319
v 3.37286E-16 2.754149 -0.9999999
v 1 0.8002545 4.769888E-08
v 4.02206E-16 3.284261 0.5219185
v 1 1 -1
v -1.226988 2.511818 -0.9999999
v 4.02206E-16 3.284261 0.5219185
v -1 3.686369 0.5219186
v 3.37286E-16 2.754149 -0.9999999
v -1 3.686369 0.5219186
v 1.85232E-16 1.512534 1.521919
v -1 1.772443 1.521919
v 4.02206E-16 3.284261 0.5219185

vn 1 -1.224647E-16 -2.394445E-23
vn 1 -1.224647E-16 -2.394445E-23
vn 1 -1.224647E-16 -2.394445E-23
vn 1 -1.224647E-16 -2.394445E-23
vn -7.299462E-24 -5.960464E-08 1
vn -7.299462E-24 -5.960464E-08 1
vn -7.299462E-24 -5.960464E-08 1
vn -7.299462E-24 -5.960464E-08 1
vn 0.0008022846 0.008413394 0.9999643
vn 0.0008022846 0.008413394 0.9999643
vn -0.9420633 0.07043067 -0.3279578
vn -0.9420633 0.07043067 -0.3279578
vn -0.9420633 0.07043067 -0.3279578
vn -0.9420633 0.07043067 -0.3279578
vn 0.870084 -0.1269396 -0.4762774
vn 0.870084 -0.1269396 -0.4762774
vn 0.870084 -0.1269396 -0.4762774
vn 0.870084 -0.1269396 -0.4762774
vn -1.224647E-16 -1 -3.576278E-07
vn -1.224647E-16 -1 -3.576278E-07
vn -1.224647E-16 -1 -3.576278E-07
vn -1.224647E-16 -1 -3.576278E-07
vn -1.224647E-16 -1 -3.576278E-07
vn -1.224647E-16 -1 -3.576278E-07
vn -1.224647E-16 -1 -3.576278E-07
vn -1.224647E-16 -1 -3.576278E-07
vn -1.224647E-16 -1 -3.576278E-07
vn 0.8321325 0.4360154 0.3427042
vn 0.8321325 0.4360154 0.3427042
vn 0.8321325 0.4360154 0.3427042
vn 0.8321325 0.4360154 0.3427042
vn 0.5769305 -0.06723394 -0.8140214
vn 0.5769305 -0.06723394 -0.8140214
vn 0.5769305 -0.06723394 -0.8140214
vn 0.5769305 -0.06723394 -0.8140214
vn 0.7092711 0.5503942 -0.4404552
vn 0.7092711 0.5503942 -0.4404552
vn 0.7092711 0.5503942 -0.4404552
vn 0.7092711 0.5503942 -0.4404552
vn 0.7092711 0.5503942 -0.4404552
vn 0.6237565 0.7812976 0.02240158
vn 0.6237565 0.7812976 0.02240158
vn 0.6237565 0.7812976 0.02240158
vn 0.6237565 0.7812976 0.02240158
vn 0.2274974 -5.804172E-08 0.9737787
vn 0.2274974 -5.804172E-08 0.9737787
vn 0.2274974 -5.804172E-08 0.9737787
vn 0.2274974 -5.804172E-08 0.9737787
vn 0.335944 0.1614586 0.9279401
vn 0.335944 0.1614586 0.9279401
vn 0.335944 0.1614586 0.9279401
vn 0.335944 0.1614586 0.9279401
vn -0.9898663 0.1190052 0.07747594
vn -0.9898663 0.1190052 0.07747594
vn -0.9898663 0.1190052 0.07747594
vn -0.9898663 0.1190052 0.07747594
vn -0.9548268 0.2371948 0.1790096
vn -0.9548268 0.2371948 0.1790096
vn -0.9548268 0.2371948 0.1790096
vn -0.9548268 0.2371948 0.1790096
vn -0.9787207 0.1316225 -0.1574209
vn -0.9787207 0.1316225 -0.1574209
vn -0.9787207 0.1316225 -0.1574209
vn -0.9787207 0.1316225 -0.1574209
vn 7.299462E-24 5.960464E-08 -1
vn 7.299462E-24 5.960464E-08 -1
vn 7.299462E-24 5.960464E-08 -1
vn 7.299462E-24 5.960464E-08 -1
vn -0.04864896 0.5056553 -0.8613629
vn -0.04864896 0.5056553 -0.8613629
vn -0.04864896 0.5056553 -0.8613629
vn -0.04864896 0.5056553 -0.8613629
vn 0.7897698 0.2867565 -0.5422493
vn 0.7897698 0.2867565 -0.5422493
vn 0.7897698 0.2867565 -0.5422493
vn 0.7897698 0.2867565 -0.5422493
vn 0.9002059 0.4317758 -0.05656175
vn 0.9002059 0.4317758 -0.05656175
vn 0.9002059 0.4317758 -0.05656175
vn 0.9002059 0.4317758 -0.05656175
vn 0.06233352 0.8688064 -0.4912128
vn 0.06233352 0.8688064 -0.4912128
vn 0.06233352 0.8688064 -0.4912128
vn 0.06233352 0.8688064 -0.4912128
vn 0.1559425 0.4711126 0.8681791
vn 0.1559425 0.4711126 0.8681791
vn 0.1559425 0.4711126 0.8681791
vn 0.1559425 0.4711126 0.8681791

vt 0.1253394 0.5511463
vt 0 0.4646877
vt 0.004386046 0.5347916
vt 0.1024706 0.4573835
vt 0.6115074 0.09484474
vt 0.4329558 0.003246772
vt 0.4329557 0.09809151
vt 0.6115074 0
vt 0.6117278 0.2384765
vt 0.5082575 0.265009
vt 0.272502 0.09797628
vt 0 0.01233927
vt 0.0005623971 0.1057994
vt 0.2739893 0
vt 0.4115492 0.551766
vt 0.2312994 0.4617876
vt 0.2372411 0.5567569
vt 0.4115492 0.4594359
vt 0.5936906 0.6471073
vt 0.4329557 0.4820018
vt 0.4329558 0.6471074
vt 0.5936905 0.4589962
vt 0.8616102 0.6471073
vt 0.8616102 0.5601283
vt 0.6983337 0.7427857
vt 0.5936906 0.8666331
vt 0.4890475 0.8666331
vt 0.1211665 0.8888228
vt 0.03824169 0.6663347
vt 0.008168829 0.7278673
vt 0.1395254 0.6400608
vt 0.2372411 0.5567569
vt 0.1024706 0.4573835
vt 0.1253394 0.5511463
vt 0.2312994 0.4617876
vt 0.2431828 0.6517263
vt 0.1253394 0.5511463
vt 0.1395254 0.6400608
vt 0.2431828 0.6517263
vt 0.2372411 0.5567569
vt 0.1395254 0.6400608
vt 0.004386046 0.5347916
vt 0.03824169 0.6663347
vt 0.1253394 0.5511463
vt 0.8572854 0.07237465
vt 0.6115074 0
vt 0.6115074 0.09484474
vt 0.8572854 0.002362724
vt 0.723352 0.1944876
vt 0.6115074 0.09484474
vt 0.6117278 0.2384765
vt 0.8572854 0.07237465
vt 0.4329557 0.09921593
vt 0.2739893 0
vt 0.272502 0.09797628
vt 0.4329558 0.004516631
vt 0.4269933 0.2769431
vt 0.272502 0.09797628
vt 0.3225331 0.4573835
vt 0.4329557 0.09921593
vt 0.3225331 0.4573835
vt 0.0005623971 0.1057994
vt 0.1649574 0.3418325
vt 0.272502 0.09797628
vt 0.8651125 0.9113123
vt 0.9639083 1
vt 1 0.9193668
vt 0.868983 0.9943319
vt 0.8616102 0.6276842
vt 1 0.9193668
vt 0.9910942 0.6153538
vt 0.8651125 0.9113123
vt 0.2739685 0.8273619
vt 0.2372411 0.5567569
vt 0.2431828 0.6517263
vt 0.4115492 0.551766
vt 0.2739685 0.8273619
vt 0.1395254 0.6400608
vt 0.1211665 0.8888228
vt 0.2431828 0.6517263
vt 0.8616102 0.6276842
vt 1 0.4983862
vt 0.897842 0.4589962
vt 0.9910942 0.6153538
vt 0.5238801 0.4589962
vt 0.6117278 0.2384765
vt 0.5082575 0.265009
vt 0.6273504 0.4189768

vt1 0 0
vt1 0 0
vt1 0 0
vt1 0 0
vt1 0 0
vt1 0 0
vt1 0 0
vt1 0 0
vt1 0 0
vt1 0 0
vt1 0 0
vt1 0 0
vt1 0 0
vt1 0 0
vt1 0 0
vt1 0 0
vt1 0 0
vt1 0 0
vt1 0 0
vt1 0 0
vt1 0 0
vt1 0 0
vt1 0 0
vt1 0 0
vt1 0 0
vt1 0 0
vt1 0 0
vt1 0 0
vt1 0 0
vt1 0 0
vt1 0 0
vt1 0 0
vt1 0 0
vt1 0 0
vt1 0 0
vt1 0 0
vt1 0 0
vt1 0 0
vt1 0 0
vt1 0 0
vt1 0 0
vt1 0 0
vt1 0 0
vt1 0 0
vt1 0 0
vt1 0 0
vt1 0 0
vt1 0 0
vt1 0 0
vt1 0 0
vt1 0 0
vt1 0 0
vt1 0 0
vt1 0 0
vt1 0 0
vt1 0 0
vt1 0 0
vt1 0 0
vt1 0 0
vt1 0 0
vt1 0 0
vt1 0 0
vt1 0 0
vt1 0 0
vt1 0 0
vt1 0 0
vt1 0 0
vt1 0 0
vt1 0 0
vt1 0 0
vt1 0 0
vt1 0 0
vt1 0 0
vt1 0 0
vt1 0 0
vt1 0 0
vt1 0 0
vt1 0 0
vt1 0 0
vt1 0 0
vt1 0 0
vt1 0 0
vt1 0 0
vt1 0 0
vt1 0 0
vt1 0 0
vt1 0 0
vt1 0 0

vt2 0 0
vt2 0 0
vt2 0 0
vt2 0 0
vt2 0 0
vt2 0 0
vt2 0 0
vt2 0 0
vt2 0 0
vt2 0 0
vt2 0 0
vt2 0 0
vt2 0 0
vt2 0 0
vt2 0 0
vt2 0 0
vt2 0 0
vt2 0 0
vt2 0 0
vt2 0 0
vt2 0 0
vt2 0 0
vt2 0 0
vt2 0 0
vt2 0 0
vt2 0 0
vt2 0 0
vt2 0 0
vt2 0 0
vt2 0 0
vt2 0 0
vt2 0 0
vt2 0 0
vt2 0 0
vt2 0 0
vt2 0 0
vt2 0 0
vt2 0 0
vt2 0 0
vt2 0 0
vt2 0 0
vt2 0 0
vt2 0 0
vt2 0 0
vt2 0 0
vt2 0 0
vt2 0 0
vt2 0 0
vt2 0 0
vt2 0 0
vt2 0 0
vt2 0 0
vt2 0 0
vt2 0 0
vt2 0 0
vt2 0 0
vt2 0 0
vt2 0 0
vt2 0 0
vt2 0 0
vt2 0 0
vt2 0 0
vt2 0 0
vt2 0 0
vt2 0 0
vt2 0 0
vt2 0 0
vt2 0 0
vt2 0 0
vt2 0 0
vt2 0 0
vt2 0 0
vt2 0 0
vt2 0 0
vt2 0 0
vt2 0 0
vt2 0 0
vt2 0 0
vt2 0 0
vt2 0 0
vt2 0 0
vt2 0 0
vt2 0 0
vt2 0 0
vt2 0 0
vt2 0 0
vt2 0 0
vt2 0 0

vc 1 1 1 1
vc 1 1 1 1
vc 1 1 1 1
vc 1 1 1 1
vc 1 1 1 1
vc 1 1 1 1
vc 1 1 1 1
vc 1 1 1 1
vc 1 1 1 1
vc 1 1 1 1
vc 1 1 1 1
vc 1 1 1 1
vc 1 1 1 1
vc 1 1 1 1
vc 1 1 1 1
vc 1 1 1 1
vc 1 1 1 1
vc 1 1 1 1
vc 1 1 1 1
vc 1 1 1 1
vc 1 1 1 1
vc 1 1 1 1
vc 1 1 1 1
vc 1 1 1 1
vc 1 1 1 1
vc 1 1 1 1
vc 1 1 1 1
vc 1 1 1 1
vc 1 1 1 1
vc 1 1 1 1
vc 1 1 1 1
vc 1 1 1 1
vc 1 1 1 1
vc 1 1 1 1
vc 1 1 1 1
vc 1 1 1 1
vc 1 1 1 1
vc 1 1 1 1
vc 1 1 1 1
vc 1 1 1 1
vc 1 1 1 1
vc 1 1 1 1
vc 1 1 1 1
vc 1 1 1 1
vc 1 1 1 1
vc 1 1 1 1
vc 1 1 1 1
vc 1 1 1 1
vc 1 1 1 1
vc 1 1 1 1
vc 1 1 1 1
vc 1 1 1 1
vc 1 1 1 1
vc 1 1 1 1
vc 1 1 1 1
vc 1 1 1 1
vc 1 1 1 1
vc 1 1 1 1
vc 1 1 1 1
vc 1 1 1 1
vc 1 1 1 1
vc 1 1 1 1
vc 1 1 1 1
vc 1 1 1 1
vc 1 1 1 1
vc 1 1 1 1
vc 1 1 1 1
vc 1 1 1 1
vc 1 1 1 1
vc 1 1 1 1
vc 1 1 1 1
vc 1 1 1 1
vc 1 1 1 1
vc 1 1 1 1
vc 1 1 1 1
vc 1 1 1 1
vc 1 1 1 1
vc 1 1 1 1
vc 1 1 1 1
vc 1 1 1 1
vc 1 1 1 1
vc 1 1 1 1
vc 1 1 1 1
vc 1 1 1 1
vc 1 1 1 1
vc 1 1 1 1
vc 1 1 1 1
vc 1 1 1 1
f 1/1/1 3/3/3 2/2/2
f 1/1/1 2/2/2 4/4/4
f 5/5/5 7/7/7 6/6/6
f 5/5/5 6/6/6 8/8/8
f 9/9/9 7/7/7 5/5/5
f 9/9/9 10/10/10 7/7/7
f 11/11/11 13/13/13 12/12/12
f 11/11/11 12/12/12 14/14/14
f 15/15/15 17/17/17 16/16/16
f 15/15/15 16/16/16 18/18/18
f 19/19/19 21/21/21 20/20/20
f 19/19/19 20/20/20 22/22/22
f 23/23/23 19/19/19 22/22/22
f 23/23/23 22/22/22 24/24/24
f 25/25/25 19/19/19 23/23/23
f 25/25/25 26/26/26 19/19/19
f 26/26/26 21/21/21 19/19/19
f 26/26/26 27/27/27 21/21/21
f 28/28/28 30/30/30 29/29/29
f 28/28/28 29/29/29 31/31/31
f 32/32/32 34/34/34 33/33/33
f 32/32/32 33/33/33 35/35/35
f 36/36/36 38/38/38 37/37/37
f 39/39/39 37/37/37 40/40/40
f 41/41/41 43/43/43 42/42/42
f 41/41/41 42/42/42 44/44/44
f 45/45/45 47/47/47 46/46/46
f 45/45/45 46/46/46 48/48/48
f 49/49/49 51/51/51 50/50/50
f 49/49/49 50/50/50 52/52/52
f 53/53/53 55/55/55 54/54/54
f 53/53/53 54/54/54 56/56/56
f 57/57/57 59/59/59 58/58/58
f 57/57/57 58/58/58 60/60/60
f 61/61/61 63/63/63 62/62/62
f 61/61/61 62/62/62 64/64/64
f 65/65/65 67/67/67 66/66/66
f 65/65/65 66/66/66 68/68/68
f 69/69/69 71/71/71 70/70/70
f 69/69/69 70/70/70 72/72/72
f 73/73/73 75/75/75 74/74/74
f 73/73/73 74/74/74 76/76/76
f 77/77/77 79/79/79 78/78/78
f 77/77/77 78/78/78 80/80/80
f 81/81/81 83/83/83 82/82/82
f 81/81/81 82/82/82 84/84/84
f 85/85/85 87/87/87 86/86/86
f 85/85/85 86/86/86 88/88/88

