g Exported Mesh Combined Mesh 
v -1.057391 2.777661 4.601631
v 0.3633452 5.21794 4.601637
v 0.5191721 2.693515 4.601638
v -1.0496 5.021598 4.60163
v 0.5721352 2.777661 -4.545853
v -0.8486022 5.217939 -4.545854
v -1.004428 2.693515 -4.545854
v 0.5643438 5.021599 -4.545854
v 5.619043 3.829853 -9.544547
v 6.15634 3.829853 -9.544547
v 5.619043 4.569228 -9.544547
v 6.15634 4.569228 -9.544547
v 5.619043 4.569228 -10.0596
v 6.15634 4.569228 -10.0596
v 5.619043 3.829853 -10.0596
v 6.15634 3.829853 -10.0596
v 5.619043 4.569228 -9.544547
v 6.15634 4.569228 -9.544547
v 5.619043 4.569228 -10.0596
v 6.15634 4.569228 -10.0596
v 5.619043 3.829853 -10.0596
v 6.15634 3.829853 -9.544547
v 6.15634 3.829853 -10.0596
v 5.619043 3.829853 -9.544547
v 6.15634 3.829853 -9.544547
v 6.15634 4.569228 -10.0596
v 6.15634 3.829853 -10.0596
v 6.15634 4.569228 -9.544547
v 5.619043 3.829853 -10.0596
v 5.619043 4.569228 -9.544547
v 5.619043 3.829853 -9.544547
v 5.619043 4.569228 -10.0596
v -4.547934 4.877151 1.830811
v -4.53894 3.108982 -1.893608
v -4.528429 4.813031 -1.962605
v -4.547886 3.103889 1.753923
v 1.673314 9.56421 1.805967
v -1.574342 9.564223 -1.484931
v 1.673314 9.564218 -1.484931
v -1.574342 9.564216 1.805967

vn -4.690032E-06 2.472561E-07 1
vn -4.690032E-06 2.472561E-07 1
vn -4.690032E-06 2.472561E-07 1
vn -4.690032E-06 2.472561E-07 1
vn 1.946705E-07 -2.295888E-07 -1
vn 1.946705E-07 -2.295888E-07 -1
vn 1.946705E-07 -2.295888E-07 -1
vn 1.946705E-07 -2.295888E-07 -1
vn 0 0 1
vn 0 0 1
vn 0 0 1
vn 0 0 1
vn 0 1 0
vn 0 1 0
vn 0 0 -1
vn 0 0 -1
vn 0 1 0
vn 0 1 0
vn 0 0 -1
vn 0 0 -1
vn 0 -1 0
vn 0 -1 0
vn 0 -1 0
vn 0 -1 0
vn 1 0 0
vn 1 0 0
vn 1 0 0
vn 1 0 0
vn -1 0 0
vn -1 0 0
vn -1 0 0
vn -1 0 0
vn -0.9999881 0.003017809 -0.003847585
vn -0.9999881 0.003017809 -0.003847585
vn -0.9999881 0.003017809 -0.003847585
vn -0.9999881 0.003017809 -0.003847585
vn 1.668929E-06 1 2.264976E-06
vn 1.668929E-06 1 2.264976E-06
vn 1.668929E-06 1 2.264976E-06
vn 1.668929E-06 1 2.264976E-06

vt 0 0
vt 1 0.5
vt 1 0
vt 0 0.5
vt 0 0
vt 1 0.5
vt 1 0
vt 0 0.5
vt 0 0
vt 1 0
vt 0 0.5
vt 1 0.5
vt 0 0.5
vt 1 0.5
vt 0 0.5
vt 1 0.5
vt 0 0
vt 1 0
vt 0 0
vt 1 0
vt 0 0
vt 1 0.5
vt 1 0
vt 0 0.5
vt 0 0
vt 1 0.5
vt 1 0
vt 0 0.5
vt 0 0
vt 1 0.5
vt 1 0
vt 0 0.5
vt 0 0
vt 1 0.5
vt 1 0
vt 0 0.5
vt 0 0.5
vt 0.03125 0.515625
vt 0.03125 0.5
vt 0 0.515625

vt1 0 0
vt1 0 0
vt1 0 0
vt1 0 0
vt1 0 0
vt1 0 0
vt1 0 0
vt1 0 0
vt1 0.6909865 0.1735822
vt1 0.9966581 0.1735822
vt1 0.6909865 0.3264179
vt1 0.9966581 0.3264179
vt1 0.3097273 0.1735821
vt1 0.004055766 0.1735821
vt1 0.3471642 0.3264179
vt1 0.6528358 0.3264179
vt1 0.3097273 0.3264179
vt1 0.004055766 0.3264179
vt1 0.3471642 0.1735821
vt1 0.6528358 0.1735821
vt1 0.3471642 0.002027883
vt1 0.6528358 0.1548637
vt1 0.6528358 0.002027883
vt1 0.3471642 0.1548637
vt1 0.6902728 0.1548637
vt1 0.9959443 0.002027883
vt1 0.6902728 0.002027883
vt1 0.9959443 0.1548637
vt1 0.3097273 0.002027883
vt1 0.004055766 0.1548637
vt1 0.3097273 0.1548637
vt1 0.004055766 0.002027883
vt1 0 0
vt1 0 0
vt1 0 0
vt1 0 0
vt1 0 0
vt1 0 0
vt1 0 0
vt1 0 0

vt2 0 0
vt2 0 0
vt2 0 0
vt2 0 0
vt2 0 0
vt2 0 0
vt2 0 0
vt2 0 0
vt2 0.6909865 0.1735822
vt2 0.9966581 0.1735822
vt2 0.6909865 0.3264179
vt2 0.9966581 0.3264179
vt2 0.3097273 0.1735821
vt2 0.004055766 0.1735821
vt2 0.3471642 0.3264179
vt2 0.6528358 0.3264179
vt2 0.3097273 0.3264179
vt2 0.004055766 0.3264179
vt2 0.3471642 0.1735821
vt2 0.6528358 0.1735821
vt2 0.3471642 0.002027883
vt2 0.6528358 0.1548637
vt2 0.6528358 0.002027883
vt2 0.3471642 0.1548637
vt2 0.6902728 0.1548637
vt2 0.9959443 0.002027883
vt2 0.6902728 0.002027883
vt2 0.9959443 0.1548637
vt2 0.3097273 0.002027883
vt2 0.004055766 0.1548637
vt2 0.3097273 0.1548637
vt2 0.004055766 0.002027883
vt2 0 0
vt2 0 0
vt2 0 0
vt2 0 0
vt2 0 0
vt2 0 0
vt2 0 0
vt2 0 0

vc 1 1 1 1
vc 1 1 1 1
vc 1 1 1 1
vc 1 1 1 1
vc 1 1 1 1
vc 1 1 1 1
vc 1 1 1 1
vc 1 1 1 1
vc 1 1 1 1
vc 1 1 1 1
vc 1 1 1 1
vc 1 1 1 1
vc 1 1 1 1
vc 1 1 1 1
vc 1 1 1 1
vc 1 1 1 1
vc 1 1 1 1
vc 1 1 1 1
vc 1 1 1 1
vc 1 1 1 1
vc 1 1 1 1
vc 1 1 1 1
vc 1 1 1 1
vc 1 1 1 1
vc 1 1 1 1
vc 1 1 1 1
vc 1 1 1 1
vc 1 1 1 1
vc 1 1 1 1
vc 1 1 1 1
vc 1 1 1 1
vc 1 1 1 1
vc 1 1 1 1
vc 1 1 1 1
vc 1 1 1 1
vc 1 1 1 1
vc 1 1 1 1
vc 1 1 1 1
vc 1 1 1 1
vc 1 1 1 1
f 1/1/1 3/3/3 2/2/2
f 1/1/1 2/2/2 4/4/4
f 5/5/5 7/7/7 6/6/6
f 5/5/5 6/6/6 8/8/8
f 9/9/9 10/10/10 12/12/12
f 9/9/9 12/12/12 11/11/11
f 17/17/17 18/18/18 14/14/14
f 17/17/17 14/14/14 13/13/13
f 19/19/19 20/20/20 16/16/16
f 19/19/19 16/16/16 15/15/15
f 21/21/21 23/23/23 22/22/22
f 21/21/21 22/22/22 24/24/24
f 25/25/25 27/27/27 26/26/26
f 25/25/25 26/26/26 28/28/28
f 29/29/29 31/31/31 30/30/30
f 29/29/29 30/30/30 32/32/32
f 33/33/33 35/35/35 34/34/34
f 33/33/33 34/34/34 36/36/36
f 37/37/37 39/39/39 38/38/38
f 37/37/37 38/38/38 40/40/40

