g Exported Mesh Combined Mesh 
v 0.9714673 2.777678 -8.464422
v -0.4492701 5.217957 -8.464422
v -0.6050961 2.693532 -8.464422
v 0.9636759 5.021616 -8.464422
v -7.891558 2.777678 -0.8015462
v -7.89156 5.217957 0.6191906
v -7.89156 2.693532 0.7750168
v -7.891558 5.021616 -0.7937551
v -0.6580591 2.777678 8.432993
v 0.7626776 5.217957 8.432997
v 0.9185039 2.693532 8.432998
v -0.6502681 5.021616 8.432992

vn 1.946705E-07 -2.295888E-07 -1
vn 1.946705E-07 -2.295888E-07 -1
vn 1.946705E-07 -2.295888E-07 -1
vn 1.946705E-07 -2.295888E-07 -1
vn -1 -5.07746E-08 -1.275701E-06
vn -1 -5.07746E-08 -1.275701E-06
vn -1 -5.07746E-08 -1.275701E-06
vn -1 -5.07746E-08 -1.275701E-06
vn -3.362761E-06 8.834715E-09 1
vn -3.362761E-06 8.834715E-09 1
vn -3.362761E-06 8.834715E-09 1
vn -3.362761E-06 8.834715E-09 1

vt 0 0
vt 1 1
vt 1 0
vt 0 1
vt 0 0
vt 1 1
vt 1 0
vt 0 1
vt 0 0
vt 1 1
vt 1 0
vt 0 1

vt1 0 0
vt1 0 0
vt1 0 0
vt1 0 0
vt1 0 0
vt1 0 0
vt1 0 0
vt1 0 0
vt1 0 0
vt1 0 0
vt1 0 0
vt1 0 0

vt2 0 0
vt2 0 0
vt2 0 0
vt2 0 0
vt2 0 0
vt2 0 0
vt2 0 0
vt2 0 0
vt2 0 0
vt2 0 0
vt2 0 0
vt2 0 0

vc 1 1 1 1
vc 1 1 1 1
vc 1 1 1 1
vc 1 1 1 1
vc 1 1 1 1
vc 1 1 1 1
vc 1 1 1 1
vc 1 1 1 1
vc 1 1 1 1
vc 1 1 1 1
vc 1 1 1 1
vc 1 1 1 1
f 1/1/1 3/3/3 2/2/2
f 1/1/1 2/2/2 4/4/4
f 5/5/5 7/7/7 6/6/6
f 5/5/5 6/6/6 8/8/8
f 9/9/9 11/11/11 10/10/10
f 9/9/9 10/10/10 12/12/12

